<svg width="60" height="60" viewBox="0 0 60 60" fill="none" xmlns="http://www.w3.org/2000/svg">
<rect width="60" height="60" rx="30" fill="url(#paint0_linear_208_157)"/>
<path d="M29.211 10.0912C28.199 10.3026 27.132 11.1149 26.626 12.0608C25.603 13.9637 26.307 16.2895 28.21 17.3355C28.859 17.6916 28.969 17.7139 29.948 17.7139C30.916 17.7139 31.059 17.6805 31.73 17.3466C32.522 16.9572 33.028 16.4341 33.479 15.5439C33.853 14.7983 33.897 13.3739 33.589 12.5282C33.149 11.3486 32.093 10.425 30.839 10.1357C30.157 9.96876 29.893 9.95763 29.211 10.0912Z" fill="white"/>
<path d="M15.3074 11.193C14.6254 11.883 15.0324 12.7398 16.9904 14.8208C19.2124 17.1799 21.4235 18.7378 23.9755 19.7616L25.0535 20.1956L25.4055 21.2082C25.7465 22.1764 25.7575 22.2209 25.5925 22.6326C25.3175 23.2781 25.4275 24.2239 25.8345 24.8026C26.4505 25.6817 27.5395 25.9933 28.4745 25.5482C28.7715 25.4035 29.0685 25.27 29.1235 25.2477C29.1895 25.2143 29.1345 25.3034 29.0135 25.448C28.6175 25.8931 28.0015 26.138 27.3415 26.0935C26.7915 26.0601 26.7475 26.0823 26.8025 26.2826C26.9565 26.9169 26.9895 27.9296 26.8795 28.4637C26.8135 28.7976 26.4395 29.7101 26.0435 30.5113C25.4165 31.7687 25.3175 32.0692 25.2405 32.837C25.1085 34.0722 25.2625 35.7526 25.6145 37.2437L25.9335 38.5235L25.9885 44.3657C26.0325 49.6292 26.0655 50.2413 26.2305 50.564C26.4725 51.0091 26.9015 51.343 27.4075 51.4987C28.2765 51.7658 29.3545 51.1204 29.6075 50.2079C29.6845 49.9074 29.7285 47.3814 29.7285 42.3292V34.9069H30.0035H30.2786V42.3849C30.2786 47.1254 30.3226 50.0187 30.3886 50.2858C30.5316 50.7754 31.1036 51.3207 31.6866 51.4987C32.4456 51.7213 33.3696 51.3096 33.7766 50.564C33.9416 50.2413 33.9746 49.6181 34.0186 44.31L34.0846 38.4122L34.4036 37.0768C34.6786 35.8972 34.7226 35.53 34.7226 33.9498L34.7336 32.1582L33.9966 30.6671C33.6006 29.8436 33.2156 28.9756 33.1496 28.7308C33.0066 28.2078 32.9956 27.2619 33.1276 26.5831L33.2156 26.1157H32.6216C31.8956 26.1157 31.4226 25.9265 30.9936 25.448L30.6636 25.0919L31.0816 25.3701C31.9066 25.9265 33.0066 25.8598 33.7546 25.2032C34.4916 24.5467 34.7006 23.7677 34.4146 22.7996L34.2166 22.1653L34.5686 21.186C34.8546 20.3848 34.9756 20.1845 35.2176 20.0954C38.5506 18.8268 41.5207 16.7014 43.7427 13.9973C44.8537 12.6397 45.0627 12.2724 44.9857 11.7939C44.8977 11.2264 44.4797 10.8703 43.9077 10.8703C43.4017 10.8703 43.3137 10.9482 42.1037 12.4839C40.7067 14.2644 38.4076 16.1339 36.3286 17.191C33.0726 18.8491 29.0355 19.1607 25.6915 18.0256C22.5455 16.9685 19.4764 14.6983 17.4084 11.9052C16.7594 11.0372 16.5504 10.8703 16.0554 10.8703C15.7364 10.8703 15.5494 10.9482 15.3074 11.193Z" fill="white"/>
<defs>
<linearGradient id="paint0_linear_208_157" x1="-4.46809" y1="-17.5" x2="83.2104" y2="6.38316" gradientUnits="userSpaceOnUse">
<stop stop-color="#D8892D"/>
<stop offset="1" stop-color="#DB473E"/>
</linearGradient>
</defs>
</svg>
